<svg xmlns="http://www.w3.org/2000/svg" viewBox="0 0 1024 1024">
  <!-- Echoelmusic App Icon — optimized for App Store (Apple masks corners) -->
  <rect width="1024" height="1024" fill="#000"/>
  <text x="512" y="490" text-anchor="middle" font-family="'Atkinson Hyperlegible','SF Pro Display',Arial,sans-serif" font-weight="700" font-size="500" fill="#e0e0e0">E</text>
  <g stroke="#e0e0e0" fill="none" stroke-width="38" stroke-linecap="round">
    <path d="M220,620 C275,565 355,565 410,620 C465,675 559,675 614,620 C669,565 749,565 804,620" opacity="0.9"/>
    <path d="M220,720 C275,665 355,665 410,720 C465,775 559,775 614,720 C669,665 749,665 804,720" opacity="0.5"/>
    <path d="M220,820 C275,765 355,765 410,820 C465,875 559,875 614,820 C669,765 749,765 804,820" opacity="0.3"/>
  </g>
</svg>
