<svg xmlns="http://www.w3.org/2000/svg" viewBox="0 0 100 100">
  <rect width="100" height="100" rx="22" fill="#000"/>
  <text x="50" y="52" text-anchor="middle" font-family="'Atkinson Hyperlegible',Arial,sans-serif" font-weight="700" font-size="52" fill="white">E</text>
  <g stroke="white" fill="none" stroke-width="3" stroke-linecap="round">
    <path d="M24,66 C29,61 36,61 41,66 C46,71 54,71 59,66 C64,61 71,61 76,66" opacity="0.8"/>
    <path d="M24,77 C29,72 36,72 41,77 C46,82 54,82 59,77 C64,72 71,72 76,77" opacity="0.4"/>
    <path d="M24,88 C29,83 36,83 41,88 C46,93 54,93 59,88 C64,83 71,83 76,88" opacity="0.15"/>
  </g>
</svg>
