<svg xmlns="http://www.w3.org/2000/svg" viewBox="0 0 100 100">
  <rect width="100" height="100" rx="22" fill="#000"/>
  <text x="50" y="48" text-anchor="middle" font-family="'Atkinson Hyperlegible',Arial,sans-serif" font-weight="700" font-size="49" fill="#e0e0e0">E</text>
  <g stroke="#e0e0e0" fill="none" stroke-width="3.5" stroke-linecap="round">
    <path d="M22,61 C27,55 35,55 40,61 C45,67 55,67 60,61 C65,55 73,55 78,61" opacity="0.9"/>
    <path d="M22,71 C27,65 35,65 40,71 C45,77 55,77 60,71 C65,65 73,65 78,71" opacity="0.5"/>
    <path d="M22,81 C27,75 35,75 40,81 C45,87 55,87 60,81 C65,75 73,75 78,81" opacity="0.3"/>
  </g>
</svg>
