<svg xmlns="http://www.w3.org/2000/svg" viewBox="0 0 480 100">
  <!-- Echoelmusic — Horizontal Logo: E + echo waves mark + Wordmark, White on Transparent -->

  <!-- E + echo waves mark -->
  <text x="50" y="52" text-anchor="middle"
        font-family="'Atkinson Hyperlegible',-apple-system,BlinkMacSystemFont,'Helvetica Neue',sans-serif"
        font-weight="700" font-size="52" fill="#e0e0e0">E</text>
  <g stroke="#e0e0e0" fill="none" stroke-width="3" stroke-linecap="round">
    <path d="M24,66 C29,61 36,61 41,66 C46,71 54,71 59,66 C64,61 71,61 76,66" opacity="0.8"/>
    <path d="M24,77 C29,72 36,72 41,77 C46,82 54,82 59,77 C64,72 71,72 76,77" opacity="0.4"/>
    <path d="M24,88 C29,83 36,83 41,88 C46,93 54,93 59,88 C64,83 71,83 76,88" opacity="0.15"/>
  </g>

  <!-- Wordmark -->
  <text x="105" y="58" font-family="'Atkinson Hyperlegible',-apple-system,BlinkMacSystemFont,'Helvetica Neue',sans-serif"
        font-size="36" font-weight="700" fill="#e0e0e0" letter-spacing="-1">
    Echoelmusic
  </text>
</svg>
