<svg xmlns="http://www.w3.org/2000/svg" viewBox="0 0 200 200">
  <!-- Echoelmusic — Stacked Logo: Atkinson Bold "3" Mark + Wordmark, White on Transparent -->

  <!-- "3" mark from Atkinson Hyperlegible Bold -->
  <g transform="translate(100 65) scale(0.11 -0.11) translate(-293.5 -334)">
    <path d="M291-12Q235-12 183.5 4Q132 20 93 53.5Q54 87 33 140L171 190Q184 141 219 121Q254 101 295 101Q342 101 370 124Q398 147 398 188Q398 229 372 251.5Q346 274 303.5 282.5Q261 291 211 291V397Q297 397 343.5 421Q390 445 390 489Q390 528 358.5 547.5Q327 567 286 567Q249 567 218 549Q187 531 177 485L40 535Q60 586 99 618Q138 650 189 665Q240 680 295 680Q341 680 385 670Q429 660 464.5 638.5Q500 617 521.5 584.5Q543 552 543 507Q543 453 514 412.5Q485 372 450 352Q483 340 506.5 314Q530 288 542 257Q554 226 554 195Q554 125 517 79.5Q480 34 420 11Q360-12 291-12Z" fill="white"/>
  </g>

  <!-- Wordmark -->
  <text x="100" y="148" text-anchor="middle"
        font-family="'Atkinson Hyperlegible', -apple-system, BlinkMacSystemFont, 'Helvetica Neue', sans-serif"
        font-size="22" font-weight="700" fill="white" letter-spacing="-0.5">
    Echoelmusic
  </text>

  <!-- Tagline -->
  <text x="100" y="168" text-anchor="middle"
        font-family="'Atkinson Hyperlegible', -apple-system, BlinkMacSystemFont, 'Helvetica Neue', sans-serif"
        font-size="9" font-weight="700" fill="white" opacity="0.4" letter-spacing="2">
    CREATE FROM WITHIN
  </text>
</svg>
