<svg xmlns="http://www.w3.org/2000/svg" viewBox="0 0 480 100">
  <defs>
    <!-- Echoelmusic Branding v9.0 — Horizontal Logo Dark (for light backgrounds): Rainbow Spectrum -->
    <!-- Waveform stroke: darker spectrum for light bg -->
    <linearGradient id="ws" x1="0%" y1="0%" x2="100%" y2="0%">
      <stop offset="0%" stop-color="#030712" stop-opacity="0.5"/>
      <stop offset="12%" stop-color="#DB2777"/>
      <stop offset="25%" stop-color="#DC2626"/>
      <stop offset="40%" stop-color="#EA580C"/>
      <stop offset="52%" stop-color="#CA8A04"/>
      <stop offset="64%" stop-color="#16A34A"/>
      <stop offset="76%" stop-color="#0891B2"/>
      <stop offset="88%" stop-color="#2563EB"/>
      <stop offset="98%" stop-color="#7C3AED"/>
    </linearGradient>
    <!-- Glow gradient (subtle on light bg) -->
    <linearGradient id="wg" x1="0%" y1="0%" x2="100%" y2="0%">
      <stop offset="0%" stop-color="#DB2777" stop-opacity="0.1"/>
      <stop offset="25%" stop-color="#DC2626" stop-opacity="0.15"/>
      <stop offset="50%" stop-color="#16A34A" stop-opacity="0.2"/>
      <stop offset="75%" stop-color="#2563EB" stop-opacity="0.15"/>
      <stop offset="100%" stop-color="#7C3AED" stop-opacity="0.1"/>
    </linearGradient>
    <!-- Ambient (reduced for light bg) -->
    <radialGradient id="amb" cx="50%" cy="50%" r="50%">
      <stop offset="0%" stop-color="#16A34A" stop-opacity="0.05"/>
      <stop offset="100%" stop-color="transparent"/>
    </radialGradient>
    <!-- Heart pulse (dark variant) -->
    <radialGradient id="hp" cx="50%" cy="40%" r="50%">
      <stop offset="0%" stop-color="#030712" stop-opacity="0.9"/>
      <stop offset="40%" stop-color="#DB2777" stop-opacity="0.5"/>
      <stop offset="100%" stop-color="#DB2777" stop-opacity="0"/>
    </radialGradient>
    <!-- Filters -->
    <filter id="gb" x="-20%" y="-50%" width="140%" height="200%">
      <feGaussianBlur stdDeviation="1.2" result="b"/>
      <feMerge><feMergeNode in="b"/><feMergeNode in="SourceGraphic"/></feMerge>
    </filter>
    <filter id="bg" x="-30%" y="-60%" width="160%" height="220%">
      <feGaussianBlur stdDeviation="2.5"/>
    </filter>
    <filter id="dg" x="-80%" y="-80%" width="260%" height="260%">
      <feGaussianBlur stdDeviation="0.5" result="g"/>
      <feMerge><feMergeNode in="g"/><feMergeNode in="SourceGraphic"/></feMerge>
    </filter>
  </defs>

  <!-- Waveform mark (centered at 50,50) -->
  <g transform="translate(50, 50)">
    <circle cx="0" cy="0" r="42" fill="url(#amb)"/>

    <!-- Echo rings — spectrum tinted (subtle on light bg) -->
    <circle cx="-3" cy="0" r="12" fill="none" stroke="#EA580C" stroke-width="0.3" opacity="0.05"/>
    <circle cx="-3" cy="0" r="22" fill="none" stroke="#16A34A" stroke-width="0.25" opacity="0.04"/>
    <circle cx="-3" cy="0" r="33" fill="none" stroke="#7C3AED" stroke-width="0.2" opacity="0.03"/>

    <!-- Background glow -->
    <path d="M -38 0 L -25 0 L -19 -22 L -13 19 L -8 -11 C -5 -4 0 0 5 0 L 9 0 C 12 0 15 -10 19 -10 C 23 -10 25 0 28 0 C 31 0 33 9 36 9 C 38.5 9 39 2 40 0"
          fill="none" stroke="url(#wg)" stroke-width="5" stroke-linecap="round" stroke-linejoin="round"
          filter="url(#bg)"/>

    <!-- Main waveform -->
    <path d="M -38 0 L -25 0 L -19 -22 L -13 19 L -8 -11 C -5 -4 0 0 5 0 L 9 0 C 12 0 15 -10 19 -10 C 23 -10 25 0 28 0 C 31 0 33 9 36 9 C 38.5 9 39 2 40 0"
          fill="none" stroke="url(#ws)" stroke-width="1.8" stroke-linecap="round" stroke-linejoin="round"
          filter="url(#gb)"/>

    <!-- Crisp top layer -->
    <path d="M -38 0 L -25 0 L -19 -22 L -13 19 L -8 -11 C -5 -4 0 0 5 0 L 9 0 C 12 0 15 -10 19 -10 C 23 -10 25 0 28 0 C 31 0 33 9 36 9 C 38.5 9 39 2 40 0"
          fill="none" stroke="url(#ws)" stroke-width="1.1" stroke-linecap="round" stroke-linejoin="round"/>

    <!-- Heart pulse dot -->
    <circle cx="-19" cy="-22" r="2.2" fill="url(#hp)" filter="url(#dg)"/>
    <circle cx="-19" cy="-22" r="0.9" fill="#030712" opacity="0.9"/>
  </g>

  <!-- Wordmark (dark text for light backgrounds) -->
  <text x="105" y="58" font-family="'Atkinson Hyperlegible', -apple-system, BlinkMacSystemFont, 'Helvetica Neue', sans-serif"
        font-size="36" font-weight="700" fill="#030712" letter-spacing="-1">
    Echoelmusic
  </text>
</svg>
