<svg xmlns="http://www.w3.org/2000/svg" viewBox="0 0 1200 630">
  <defs>
    <!-- Echoelmusic — OG Image (Social Share 1200x630): "3" Logo, White on Black -->
    <filter id="glow" x="-30%" y="-30%" width="160%" height="160%">
      <feGaussianBlur stdDeviation="4" result="b"/>
      <feMerge><feMergeNode in="b"/><feMergeNode in="SourceGraphic"/></feMerge>
    </filter>
    <filter id="tg" x="-10%" y="-10%" width="120%" height="120%">
      <feGaussianBlur stdDeviation="1.5" result="b"/>
      <feMerge><feMergeNode in="b"/><feMergeNode in="SourceGraphic"/></feMerge>
    </filter>
  </defs>

  <!-- Background -->
  <rect width="1200" height="630" fill="#000000"/>

  <!-- "3" waveform mark (centered at 190, 315) -->
  <g transform="translate(190, 315)">
    <!-- Soft glow -->
    <path d="M -85 -95 C -85 -95 -45 -130 0 -130 C 55 -130 80 -90 80 -55 C 80 -25 55 0 20 0 C 55 0 90 25 90 60 C 90 100 60 130 0 130 C -45 130 -85 95 -85 95"
          fill="none" stroke="white" stroke-width="22" stroke-linecap="round" stroke-linejoin="round"
          opacity="0.05"/>

    <!-- Main stroke -->
    <path d="M -85 -95 C -85 -95 -45 -130 0 -130 C 55 -130 80 -90 80 -55 C 80 -25 55 0 20 0 C 55 0 90 25 90 60 C 90 100 60 130 0 130 C -45 130 -85 95 -85 95"
          fill="none" stroke="white" stroke-width="10" stroke-linecap="round" stroke-linejoin="round"
          filter="url(#glow)"/>

    <!-- Pulse dot -->
    <circle cx="80" cy="-55" r="5" fill="white" opacity="0.25"/>
    <circle cx="80" cy="-55" r="2.5" fill="white" opacity="0.9"/>
  </g>

  <!-- App name -->
  <text x="420" y="268" font-family="'Atkinson Hyperlegible', -apple-system, BlinkMacSystemFont, 'Helvetica Neue', sans-serif"
        font-size="82" font-weight="700" fill="white" filter="url(#tg)" letter-spacing="-2">
    Echoelmusic
  </text>

  <!-- Tagline -->
  <text x="420" y="325" font-family="'Atkinson Hyperlegible', -apple-system, BlinkMacSystemFont, 'Helvetica Neue', sans-serif"
        font-size="30" fill="white" font-weight="700" letter-spacing="-0.3" opacity="0.6">
    Create from Within
  </text>

  <!-- Description -->
  <text x="420" y="378" font-family="'Atkinson Hyperlegible', -apple-system, BlinkMacSystemFont, 'Helvetica Neue', sans-serif"
        font-size="18" fill="rgba(255,255,255,0.45)" font-weight="400">
    Your body's vibrations become music, visuals, film, and light.
  </text>

  <!-- Feature badges — white -->
  <g transform="translate(420, 418)">
    <rect x="0" y="0" width="100" height="32" rx="16" fill="white" opacity="0.06"/>
    <text x="50" y="21" font-family="'Atkinson Hyperlegible', sans-serif" font-size="12" fill="white" text-anchor="middle" font-weight="700" opacity="0.6">6 Synths</text>

    <rect x="112" y="0" width="108" height="32" rx="16" fill="white" opacity="0.06"/>
    <text x="166" y="21" font-family="'Atkinson Hyperlegible', sans-serif" font-size="12" fill="white" text-anchor="middle" font-weight="700" opacity="0.6">90+ Effects</text>

    <rect x="232" y="0" width="120" height="32" rx="16" fill="white" opacity="0.06"/>
    <text x="292" y="21" font-family="'Atkinson Hyperlegible', sans-serif" font-size="12" fill="white" text-anchor="middle" font-weight="700" opacity="0.6">30+ Visuals</text>

    <rect x="364" y="0" width="118" height="32" rx="16" fill="white" opacity="0.06"/>
    <text x="423" y="21" font-family="'Atkinson Hyperlegible', sans-serif" font-size="12" fill="white" text-anchor="middle" font-weight="700" opacity="0.6">Bio-Reactive</text>
  </g>

  <!-- Platforms -->
  <text x="420" y="508" font-family="'Atkinson Hyperlegible', -apple-system, BlinkMacSystemFont, 'Helvetica Neue', sans-serif"
        font-size="14" fill="rgba(255,255,255,0.3)" font-weight="400" letter-spacing="0.5">
    iPhone  ·  iPad  ·  Mac  ·  Apple Watch  ·  Apple TV  ·  Vision Pro
  </text>

  <!-- Free badge -->
  <rect x="420" y="528" width="70" height="30" rx="15" fill="white" opacity="0.06"/>
  <text x="455" y="548" font-family="'Atkinson Hyperlegible', sans-serif" font-size="12" fill="white" text-anchor="middle" font-weight="700" letter-spacing="1" opacity="0.5">FREE</text>

  <!-- Bottom line -->
  <line x1="0" y1="620" x2="1200" y2="620" stroke="white" stroke-width="1" opacity="0.06"/>
</svg>
